<svg width="28" height="28" viewBox="0 0 28 28" fill="none" xmlns="http://www.w3.org/2000/svg">
<path fill-rule="evenodd" clip-rule="evenodd" d="M1.75 3.5H26.25C27.2125 3.5 28 4.2875 28 5.25V15.8728C27.5467 14.996 26.9536 14.2032 26.25 13.5241V5.25H1.75V19.25H11.0308C11.0104 19.4973 11 19.7474 11 20C11 22.4278 11.9613 24.6311 13.5241 26.25H7C9.59 25.1825 10.6575 23.8175 11.095 22.75H1.75C0.7875 22.75 0 21.9625 0 21V5.25C0 4.2875 0.7875 3.5 1.75 3.5Z" fill="black"/>
<path fill-rule="evenodd" clip-rule="evenodd" d="M20 27.1111C23.9274 27.1111 27.1111 23.9274 27.1111 20C27.1111 16.0727 23.9274 12.8889 20 12.8889C16.0727 12.8889 12.8889 16.0727 12.8889 20C12.8889 23.9274 16.0727 27.1111 20 27.1111ZM23.5292 21.9586L20.2997 18.729L23.5292 15.5L24.5001 16.4698L22.2404 18.729L24.5001 20.9888L23.5292 21.9586ZM15.5 18.8696L17.7597 21.1294L15.5 23.3891L16.4709 24.3595L19.6999 21.1294L16.4709 17.8998L15.5 18.8696Z" fill="black"/>
</svg>
