<svg width="16" height="16" viewBox="0 0 16 16" fill="none" xmlns="http://www.w3.org/2000/svg">
<path fill-rule="evenodd" clip-rule="evenodd" d="M1.875 2.75H14.125C14.6062 2.75 15 3.14375 15 3.625V6.38947C14.7244 6.2098 14.4318 6.05417 14.125 5.92554V3.625H1.875V10.625H6.51258C6.50424 10.7489 6.5 10.874 6.5 11C6.5 12.1608 6.85958 13.2375 7.47342 14.125H4.5C5.795 13.5913 6.32875 12.9087 6.5475 12.375H1.875C1.39375 12.375 1 11.9812 1 11.5V3.625C1 3.14375 1.39375 2.75 1.875 2.75Z" fill="white"/>
<path d="M12 15C14.2091 15 16 13.2091 16 11C16 8.79086 14.2091 7 12 7C9.79086 7 8 8.79086 8 11C8 13.2091 9.79086 15 12 15Z" fill="white"/>
</svg>
