<svg width="16" height="16" viewBox="0 0 16 16" fill="none" xmlns="http://www.w3.org/2000/svg">
<path fill-rule="evenodd" clip-rule="evenodd" d="M5.68262 2.81836C5.53678 2.77279 5.36133 2.75 5.15625 2.75H1.875C1.75195 2.75 1.63802 2.77279 1.5332 2.81836C1.42839 2.86393 1.33496 2.92773 1.25293 3.00977C1.17546 3.08724 1.11393 3.17839 1.06836 3.2832C1.02279 3.38802 1 3.50195 1 3.625V13.25H5.43614C5.32212 12.9683 5.22887 12.676 5.15829 12.375H1.875V5.375H5.15625C5.36133 5.375 5.53678 5.35449 5.68262 5.31348C5.83301 5.2679 5.96517 5.21322 6.0791 5.14941C6.19759 5.08561 6.30241 5.01497 6.39355 4.9375C6.4847 4.86003 6.57585 4.78939 6.66699 4.72559C6.7627 4.66178 6.86296 4.60938 6.96777 4.56836C7.07715 4.52279 7.20247 4.5 7.34375 4.5H14.125V5.87704C14.4365 6.06747 14.7293 6.28552 15 6.52779V4.5C15 4.37695 14.9772 4.26302 14.9316 4.1582C14.8861 4.05339 14.8223 3.96224 14.7402 3.88477C14.6628 3.80273 14.5716 3.73893 14.4668 3.69336C14.362 3.64779 14.248 3.625 14.125 3.625H7.34375C7.20247 3.625 7.07715 3.60449 6.96777 3.56348C6.86296 3.5179 6.7627 3.46322 6.66699 3.39941C6.57585 3.33561 6.4847 3.26497 6.39355 3.1875C6.30241 3.11003 6.19759 3.03939 6.0791 2.97559C5.96517 2.91178 5.83301 2.85938 5.68262 2.81836ZM1.875 4.5V3.625H5.15625C5.26562 3.625 5.36133 3.63639 5.44336 3.65918C5.52539 3.67741 5.60059 3.70703 5.66895 3.74805C5.7373 3.78451 5.80339 3.83008 5.86719 3.88477C5.93555 3.9349 6.00846 3.99414 6.08594 4.0625C6.00846 4.13086 5.93555 4.19238 5.86719 4.24707C5.80339 4.2972 5.7373 4.34277 5.66895 4.38379C5.60059 4.42025 5.52539 4.44987 5.44336 4.47266C5.36133 4.49089 5.26562 4.5 5.15625 4.5H1.875Z" fill="#4B4B4B"/>
<path fill-rule="evenodd" clip-rule="evenodd" d="M16 11C16 13.7614 13.7614 16 11 16C8.23858 16 6 13.7614 6 11C6 8.23858 8.23858 6 11 6C13.7614 6 16 8.23858 16 11ZM8.3125 11.1249L8.5 11.3124L10.5 13.3749L13.6875 9.31243V9.24995L13.625 9.18744L13.0625 8.74994H13C12.9375 8.74994 12.875 8.74994 12.875 8.81244L10.375 11.9999L8.9375 10.4374V10.4374C8.9375 10.3749 8.9375 10.3749 8.875 10.3749L8.8125 10.4374L8.3125 10.9374C8.25 10.9999 8.25 11.0624 8.3125 11.1249Z" fill="#369432"/>
</svg>
