<svg width="16" height="16" viewBox="0 0 16 16" fill="none" xmlns="http://www.w3.org/2000/svg">
<path d="M5.15625 2.75C5.36133 2.75 5.53678 2.77279 5.68262 2.81836C5.83301 2.85938 5.96517 2.91178 6.0791 2.97559C6.19759 3.03939 6.30241 3.11003 6.39355 3.1875C6.4847 3.26497 6.57585 3.33561 6.66699 3.39941C6.7627 3.46322 6.86296 3.5179 6.96777 3.56348C7.07715 3.60449 7.20247 3.625 7.34375 3.625H14.125C14.248 3.625 14.362 3.64779 14.4668 3.69336C14.5716 3.73893 14.6628 3.80273 14.7402 3.88477C14.8223 3.96224 14.8861 4.05339 14.9316 4.1582C14.9772 4.26302 15 4.37695 15 4.5V13.25H1V3.625C1 3.50195 1.02279 3.38802 1.06836 3.2832C1.11393 3.17839 1.17546 3.08724 1.25293 3.00977C1.33496 2.92773 1.42839 2.86393 1.5332 2.81836C1.63802 2.77279 1.75195 2.75 1.875 2.75H5.15625ZM1.875 3.625V4.5H5.15625C5.26562 4.5 5.36133 4.49089 5.44336 4.47266C5.52539 4.44987 5.60059 4.42025 5.66895 4.38379C5.7373 4.34277 5.80339 4.2972 5.86719 4.24707C5.93555 4.19238 6.00846 4.13086 6.08594 4.0625C6.00846 3.99414 5.93555 3.9349 5.86719 3.88477C5.80339 3.83008 5.7373 3.78451 5.66895 3.74805C5.60059 3.70703 5.52539 3.67741 5.44336 3.65918C5.36133 3.63639 5.26562 3.625 5.15625 3.625H1.875ZM14.125 4.5H7.34375C7.20247 4.5 7.07715 4.52279 6.96777 4.56836C6.86296 4.60938 6.7627 4.66178 6.66699 4.72559C6.57585 4.78939 6.4847 4.86003 6.39355 4.9375C6.30241 5.01497 6.19759 5.08561 6.0791 5.14941C5.96517 5.21322 5.83301 5.2679 5.68262 5.31348C5.53678 5.35449 5.36133 5.375 5.15625 5.375H1.875V12.375H14.125V4.5Z" fill="#4B4B4B"/>
</svg>
