<svg width="16" height="16" viewBox="0 0 16 16" fill="none" xmlns="http://www.w3.org/2000/svg">
<path fill-rule="evenodd" clip-rule="evenodd" d="M1.875 2.75H14.125C14.6062 2.75 15 3.14375 15 3.625V6.52779C14.7293 6.28552 14.4365 6.06747 14.125 5.87704V3.625H1.875V10.625H5.01153C5.00388 10.749 5 10.8741 5 11C5 11.4731 5.05476 11.9335 5.15829 12.375H1.875C1.39375 12.375 1 11.9812 1 11.5V3.625C1 3.14375 1.39375 2.75 1.875 2.75ZM5.56582 13.5469C5.28543 13.7489 4.93582 13.9454 4.5 14.125H5.87704C5.76318 13.9388 5.6592 13.7458 5.56582 13.5469Z" fill="#C8C8C8"/>
<path fill-rule="evenodd" clip-rule="evenodd" d="M16 11C16 13.7614 13.7614 16 11 16C8.23858 16 6 13.7614 6 11C6 8.23858 8.23858 6 11 6C13.7614 6 16 8.23858 16 11ZM8.3125 11.1249L8.5 11.3124L10.5 13.3749L13.6875 9.31243V9.24995L13.625 9.18744L13.0625 8.74994H13C12.9375 8.74994 12.875 8.74994 12.875 8.81244L10.375 11.9999L8.9375 10.4374V10.4374C8.9375 10.3749 8.9375 10.3749 8.875 10.3749L8.8125 10.4374L8.3125 10.9374C8.25 10.9999 8.25 11.0624 8.3125 11.1249Z" fill="#369432"/>
</svg>
